<svg width="32" height="32" viewBox="0 0 32 32" fill="none" xmlns="http://www.w3.org/2000/svg">
  <!-- 背景渐变圆 -->
  <circle cx="16" cy="16" r="15" fill="url(#bgGradient)"/>
  
  <!-- 试卷元素 -->
  <path d="M10 8C9.44772 8 9 8.44772 9 9V23C9 23.5523 9.44772 24 10 24H22C22.5523 24 23 23.5523 23 23V9C23 8.44772 22.5523 8 22 8H10Z" fill="url(#paperGradient)"/>
  
  <!-- 试卷线条 -->
  <path d="M12 12H20" stroke="white" stroke-opacity="0.8" stroke-width="1.5" stroke-linecap="round"/>
  <path d="M12 15H18" stroke="white" stroke-opacity="0.8" stroke-width="1.5" stroke-linecap="round"/>
  <path d="M12 18H16" stroke="white" stroke-opacity="0.8" stroke-width="1.5" stroke-linecap="round"/>
  
  <!-- AI 标志（脑电波/火花） -->
  <path d="M20 13L18.5 16L20 19H17L15.5 16L17 13" fill="url(#aiGradient)" stroke="white" stroke-opacity="0.9" stroke-width="1"/>
  
  <!-- 角装饰 -->
  <path d="M10 8L13 11" stroke="white" stroke-opacity="0.6" stroke-width="1" stroke-linecap="round"/>
  
  <!-- 渐变定义 -->
  <defs>
    <linearGradient id="bgGradient" x1="0%" y1="0%" x2="100%" y2="100%">
      <stop offset="0%" stop-color="#8b5cf6"/>
      <stop offset="50%" stop-color="#6366f1"/>
      <stop offset="100%" stop-color="#4f46e5"/>
    </linearGradient>
    <linearGradient id="paperGradient" x1="0%" y1="0%" x2="100%" y2="100%">
      <stop offset="0%" stop-color="rgba(255,255,255,0.95)"/>
      <stop offset="100%" stop-color="rgba(255,255,255,0.85)"/>
    </linearGradient>
    <linearGradient id="aiGradient" x1="0%" y1="0%" x2="100%" y2="100%">
      <stop offset="0%" stop-color="#f472b6"/>
      <stop offset="100%" stop-color="#ec4899"/>
    </linearGradient>
  </defs>
</svg>